<svg aria-hidden="true" style="position: absolute; width: 0; height: 0; overflow: hidden;" version="1.1" 
  xmlns="http://www.w3.org/2000/svg" 
  xmlns:xlink="http://www.w3.org/1999/xlink">
  <defs>
    <symbol id="ico-shopping_cart" viewBox="0 0 40 32">
      <title>shopping_cart</title>
      <path d="M40.003 7.070v0l-5.656 12.544c-0.282 0.626-0.884 1.063-1.592 1.104l-0.005 0-16.238 1.083 0.935 2.684h17.698c2.078 0 3.763 1.685 3.763 3.763s-1.685 3.763-3.763 3.763c-2.078 0-3.762-1.683-3.763-3.761v-0h-17.561c-0.001 2.077-1.686 3.761-3.763 3.761s-3.763-1.685-3.763-3.763 1.685-3.763 3.763-3.763h3.398l-7.253-20.697h-4.31c-1.039 0-1.882-0.842-1.882-1.882s0.842-1.882 1.882-1.882h5.656c0.816 0.006 1.51 0.525 1.775 1.25l0.004 0.013 1.095 3.131h27.847c0.003 0 0.006-0 0.009-0 1.040 0 1.883 0.842 1.884 1.881v0c-0.006 0.278-0.064 0.542-0.165 0.783l0.005-0.014zM11.745 8.181l3.467 9.937 16.17-1.079 3.991-8.858h-23.628z"></path>
    </symbol>
    <symbol id="ico-serh_ico" viewBox="0 0 32 32">
      <title>serh_ico</title>
      <path d="M30.453 26.302c0.53 0.531 0.858 1.265 0.858 2.075 0 1.622-1.315 2.938-2.938 2.938-0.813 0-1.548-0.33-2.080-0.863l-0-0-8.587-8.597c-1.717 1.034-3.789 1.645-6.004 1.645-6.507 0-11.781-5.275-11.781-11.781s5.275-11.781 11.781-11.781c6.507 0 11.781 5.275 11.781 11.781 0 2.208-0.607 4.274-1.664 6.041l0.030-0.054 8.604 8.597zM11.751 2.953c-4.86 0-8.8 3.94-8.8 8.8s3.94 8.8 8.8 8.8c4.86 0 8.8-3.94 8.8-8.8v0c-0.003-4.859-3.941-8.797-8.8-8.8h-0z"></path>
    </symbol>
  </defs>
</svg>
