<svg xmlns="http://www.w3.org/2000/svg"><defs><symbol id="ico-alarm"><path d="M30.74 10c-1.624-3.714-4.528-6.617-8.142-8.2l-.101-.04A5.828 5.828 0 0 1 26.133.498a5.868 5.868 0 0 1 4.598 9.514L30.74 10zm30.5 16.5v.002c0 3.854-1.509 7.355-3.969 9.944l.006-.006 2.029 2.03A1.481 1.481 0 0 1 58.258 41h-.001a1.506 1.506 0 0 1-1.049-.43l-2.178-2.18A14.35 14.35 0 0 1 46.74 41a14.4 14.4 0 0 1-8.322-2.631l.046.031-2.163 2.16a1.5 1.5 0 1 1-2.122-2.12l2.012-2.01a14.438 14.438 0 0 1-3.941-9.936c0-8.005 6.49-14.495 14.495-14.495s14.495 6.49 14.495 14.495v.006zm16 5c-6.351 0-11.5 5.149-11.5 11.5s5.149 11.5 11.5 11.5 11.5-5.149 11.5-11.5-5.149-11.5-11.5-11.5zm22 18h-6a1.5 1.5 0 0 1-1.5-1.5v-8a1.5 1.5 0 0 1 3 0v6.5h4.5a1.5 1.5 0 0 1 0 3zm1.287 10.21A5.96 5.96 0 0 1 99.243 56a6 6 0 0 1 5.997-6h.012c1.402 0 2.691.486 3.706 1.299l-.012-.009c-3.797 1.655-6.765 4.622-8.379 8.317l-.04.103z"/></symbol><symbol id="ico-book-2"><path d="M31.065 25.89l-14.471 5.99a1.52 1.52 0 0 1-1.198-.004l.01.004L.935 25.89A1.503 1.503 0 0 1 0 24.5v-23A1.5 1.5 0 0 1 1.5 0c.206 0 .403.04.583.114L2.073.11c.001.006.006.01.012.01h.001L16 5.88 29.911.12h.001a.012.012 0 0 0 .012-.01c.17-.07.367-.11.573-.11a1.5 1.5 0 0 1 1.5 1.5v23.002c0 .624-.381 1.158-.922 1.385l-.01.004zm14.5 8.5l-11.5-4.76v19.76l11.5 4.76V34.39zm29 3.74l-11.5 4.76v19.76l11.5-4.76V38.13zm19.879 10.63l5.5-2.5c.183-.081.396-.129.62-.13h.01a1.5 1.5 0 0 1 .62 2.866l-.009.004-5.5 2.5a1.575 1.575 0 0 1-.62.13h-.011a1.5 1.5 0 0 1-.62-2.866l.009-.004zm19.879 16.13l5.5-2.5c.183-.081.396-.129.62-.13h.01a1.5 1.5 0 0 1 .62 2.866l-.009.004-5.5 2.5v-.01a1.43 1.43 0 0 1-.62.14h-.011a1.5 1.5 0 0 1-.62-2.866l.009-.004zm19.879 21.63l5.5-2.5c.183-.081.396-.129.62-.13h.01a1.5 1.5 0 0 1 .62 2.866l-.009.004-5.5 2.5a1.575 1.575 0 0 1-.62.13h-.011a1.5 1.5 0 0 1-.62-2.866l.009-.004zm6 8c.225.002.438.049.631.134l-.01-.004 5.5 2.5a1.5 1.5 0 0 1-.611 2.87h-.011.001a1.578 1.578 0 0 1-.631-.134l.01.004-5.5-2.5a1.5 1.5 0 0 1 .611-2.87h.011-.001zm6 13.5c.225.002.438.049.631.134l-.01-.004 5.5 2.5a1.5 1.5 0 0 1-.611 2.87h-.011.001-.002c-.225 0-.438-.052-.628-.144l.009.004v.01l-5.5-2.5a1.5 1.5 0 0 1 .611-2.87h.011-.001zm6 19c.225.002.438.049.631.134l-.01-.004 5.5 2.5a1.5 1.5 0 0 1-.611 2.87h-.011.001a1.578 1.578 0 0 1-.631-.134l.01.004-5.5-2.5a1.5 1.5 0 0 1 .611-2.87h.011-.001z"/></symbol><symbol id="ico-computer"><path d="M30.452 25.29h-9.806v2.581l2.065 2.065v.516H9.292v-.516l2.065-2.065V25.29H1.551a1.548 1.548 0 0 1-1.548-1.548V3.097c0-.855.693-1.548 1.548-1.548h28.903c.855 0 1.548.693 1.548 1.548v20.645c0 .855-.693 1.548-1.548 1.548zm29.935 3.613H32.516v17.548h27.871V28.903zM73.29 39.742c.427.001.814.174 1.094.454l.97.97 3.035-3.035a1.548 1.548 0 1 1 2.189 2.187l-.001.001-4.129 4.129c-.28.28-.667.453-1.094.453s-.814-.173-1.094-.453l-2.065-2.065a1.547 1.547 0 0 1 1.094-2.642z"/></symbol><symbol id="ico-home"><path d="M32 16.5v.006a1.492 1.492 0 0 1-2.521 1.083l.001.001v.01L16.003 4.12 2.557 17.57A1.5 1.5 0 0 1 .004 16.5v-.007c0-.422.177-.803.46-1.072l.001-.001L14.923.96A1.505 1.505 0 0 1 16.004.5h.092c.023 0 .045.01.068.01.371.04.696.213.932.469l.001.001 5.9 5.9V5.5a1.5 1.5 0 0 1 3 0v4.38l5.6 5.6c.25.265.403.623.403 1.017v.003zm29 19V46a1.5 1.5 0 0 1-1.5 1.5h-3v-12h-6v12h-14A1.5 1.5 0 0 1 35 46V35.5l13-13zm13.5 19h-6v6h6v-6z"/></symbol><symbol id="ico-image"><path d="M30.5 32h-29A1.5 1.5 0 0 1 0 30.5v-29A1.5 1.5 0 0 1 1.5 0h29A1.5 1.5 0 0 1 32 1.5v29a1.5 1.5 0 0 1-1.5 1.5zm29 3h-26v26h26V35zm6.5 4.5h5.5a1.5 1.5 0 0 1 0 3H67V47a1.5 1.5 0 0 1-3 0v-7.5h2zm4.5 20a1.5 1.5 0 0 1 3 0V64H78a1.5 1.5 0 0 1 0 3h-7.5v-7.5zm20 4.5H98v7.5a1.5 1.5 0 0 1-3 0V67h-4.5a1.5 1.5 0 0 1 0-3zm20 24.5h4.5V84a1.5 1.5 0 0 1 3 0v7.5h-7.5a1.5 1.5 0 0 1 0-3z"/></symbol><symbol id="ico-line-graph"><path d="M30.5 32h-29A1.5 1.5 0 0 1 0 30.5v-29A1.5 1.5 0 0 1 1.5 0h29A1.5 1.5 0 0 1 32 1.5v29a1.5 1.5 0 0 1-1.5 1.5zm29 3h-26v26h26V35zm5.215 16.24l4-2.5a1.518 1.518 0 0 1 1.631.033l-.006-.004h.006l6.631 4.42 7.638-5.4a1.501 1.501 0 0 1 1.767 2.427l-.004.003-8.5 6c-.242.18-.547.289-.878.29a1.494 1.494 0 0 1-.865-.283l.004.003-6.657-4.43-3.135 1.95c-.236.169-.529.27-.847.27h-.003a1.5 1.5 0 0 1-.788-2.776l.006-.004z"/></symbol></defs></svg>