<svg aria-hidden="true" style="position:absolute;width:0;height:0" xmlns="http://www.w3.org/2000/svg" overflow="hidden"><defs><symbol id="ico-shopping_cart" viewBox="0 0 40 32"><path d="M40.003 7.07l-5.656 12.544a1.865 1.865 0 0 1-1.592 1.104h-.005l-16.238 1.083.935 2.684h17.698a3.763 3.763 0 1 1-3.763 3.765H13.821a3.764 3.764 0 1 1-3.763-3.765h3.398L6.203 3.788h-4.31a1.882 1.882 0 1 1 0-3.764h5.656c.816.006 1.51.525 1.775 1.25l.004.013 1.095 3.131h27.856c1.04 0 1.883.842 1.884 1.881a2.14 2.14 0 0 1-.165.783l.005-.014zM11.745 8.181l3.467 9.937 16.17-1.079 3.991-8.858H11.745z"/></symbol><symbol id="ico-serh_ico" viewBox="0 0 32 32"><path d="M30.453 26.302a2.938 2.938 0 0 1-4.16 4.15l-8.587-8.597a11.648 11.648 0 0 1-6.004 1.645C5.195 23.5-.079 18.225-.079 11.719S5.196-.062 11.702-.062c6.507 0 11.781 5.275 11.781 11.781 0 2.208-.607 4.274-1.664 6.041l.03-.054 8.604 8.597zM11.751 2.953a8.8 8.8 0 1 0 8.8 8.8 8.805 8.805 0 0 0-8.8-8.8z"/></symbol></defs></svg>